<svg width="600" height="600" viewBox="0 0 600 600" fill="none" xmlns="http://www.w3.org/2000/svg">
<rect width="600" height="600" fill="#0F0F12"/>
<path d="M327.219 85L332.5 276.5V337.5C332.5 353.188 324.379 366.883 318.7 379.9C313.355 392.584 305.505 403.432 295.149 412.444C285.127 421.457 272.934 428.466 258.57 433.473C244.205 438.146 228.17 440.482 210.465 440.482C174.721 440.482 146.994 431.637 127.284 413.946C107.909 395.922 95.5485 372.39 90.2036 343.351L161.358 328.831C164.031 343.851 169.042 356.035 176.391 365.381C184.074 374.727 195.432 379.4 210.465 379.4C223.159 379.4 233.014 375.394 240.029 367.383C247.379 359.039 251.053 346.355 251.053 329.332V146.584H135.803V85H327.219Z" fill="white"/>
<path d="M90 455.807H511V515H90.2036L90 455.807Z" fill="white"/>
<path d="M327.219 85L332.5 276.5L375 356L411.804 434.474H511V85H437.861L445 337.5L327.219 85Z" fill="white"/>
</svg>
