<?xml version="1.0" standalone="no"?>
<!DOCTYPE svg PUBLIC "-//W3C//DTD SVG 20010904//EN"
 "http://www.w3.org/TR/2001/REC-SVG-20010904/DTD/svg10.dtd">
<svg version="1.0" xmlns="http://www.w3.org/2000/svg"
 width="700.000000pt" height="700.000000pt" viewBox="0 0 700.000000 700.000000"
 preserveAspectRatio="xMidYMid meet">
<metadata>
Created by potrace 1.14, written by Peter Selinger 2001-2017
</metadata>
<g transform="translate(0.000000,700.000000) scale(0.100000,-0.100000)"
fill="#000000" stroke="none">
<path d="M0 3500 l0 -3500 3500 0 3500 0 0 3500 0 3500 -3500 0 -3500 0 0
-3500z m4501 1043 c376 -806 685 -1460 687 -1452 1 8 -15 652 -38 1430 -22
778 -40 1432 -40 1452 l0 37 425 0 425 0 0 -2040 0 -2040 -578 0 -578 0 -209
448 c-140 300 -292 601 -460 916 l-250 469 -6 -404 c-6 -433 -5 -426 -64 -574
-55 -139 -174 -371 -222 -435 -186 -243 -457 -399 -803 -462 -166 -30 -514
-30 -680 0 -435 79 -727 296 -920 680 -70 142 -153 418 -127 427 37 13 810
166 814 161 4 -3 17 -48 30 -98 13 -51 44 -134 68 -183 104 -210 243 -297 475
-298 243 -1 392 115 457 357 15 55 17 175 20 1209 l4 1147 -676 0 -675 0 0
353 c0 195 3 357 7 360 3 4 507 7 1118 7 l1112 0 684 -1467z m1459 -3208 l0
-345 -2455 0 -2455 0 0 345 0 345 2455 0 2455 0 0 -345z"/>
</g>
</svg>
